<?xml version="1.0" standalone="no"?>
<svg id="Frame1395" width="288" height="241" viewBox="0 0 288 241" fill="none" xmlns="http://www.w3.org/2000/svg" style="max-width: 100%; max-height: 100%;">
<rect width="288" height="241" fill="#0F1535" stroke-dasharray="0,0,0,1058"><animate attributeType="XML" attributeName="stroke-dasharray" repeatCount="1" dur="2.5s" values="0,0,0,1058; 
          0,529,529,0; 
          1058,0,0,0" keyTimes="0; 0.5; 1" fill="freeze"></animate></rect>
<path d="M235.5 120C235.5 121.137 234.948 122.298 233.785 123.478C232.621 124.66 230.878 125.823 228.589 126.947C224.014 129.193 217.361 131.23 209.099 132.945C192.583 136.375 169.743 138.5 144.5 138.5C119.257 138.5 96.4172 136.375 79.9014 132.945C71.6394 131.23 64.9863 129.193 60.4109 126.947C58.1222 125.823 56.3793 124.66 55.2151 123.478C54.0525 122.298 53.5 121.137 53.5 120C53.5 118.863 54.0525 117.702 55.2151 116.522C56.3793 115.34 58.1222 114.177 60.4109 113.053C64.9863 110.807 71.6394 108.77 79.9014 107.055C96.4172 103.625 119.257 101.5 144.5 101.5C169.743 101.5 192.583 103.625 209.099 107.055C217.361 108.77 224.014 110.807 228.589 113.053C230.878 114.177 232.621 115.34 233.785 116.522C234.948 117.702 235.5 118.863 235.5 120Z" stroke="#CF1D1D" stroke-dasharray="0,0,0,382.54376220703125"><animate attributeType="XML" attributeName="stroke-dasharray" repeatCount="1" dur="2.5s" values="0,0,0,382.54376220703125; 
          0,191.27188110351562,191.27188110351562,0; 
          382.54376220703125,0,0,0" keyTimes="0; 0.5; 1" fill="freeze"></animate></path>
<path d="M232.399 96.4475C232.693 97.5455 232.46 98.8106 231.643 100.251C230.824 101.693 229.442 103.269 227.522 104.946C223.684 108.3 217.784 111.989 210.248 115.785C195.183 123.372 173.671 131.336 149.288 137.87C124.905 144.403 102.294 148.262 85.453 149.224C77.0285 149.705 70.075 149.46 65.0741 148.474C62.5725 147.981 60.5879 147.308 59.1576 146.468C57.7292 145.63 56.8949 144.651 56.6007 143.553C56.3065 142.455 56.5395 141.189 57.3571 139.749C58.1759 138.307 59.5582 136.731 61.4781 135.054C65.3163 131.7 71.2155 128.01 78.752 124.215C93.8174 116.628 115.328 108.664 139.712 102.13C164.095 95.5969 186.706 91.7382 203.547 90.7763C211.971 90.2951 218.925 90.5405 223.926 91.526C226.427 92.019 228.412 92.6919 229.842 93.5317C231.271 94.3703 232.105 95.3494 232.399 96.4475Z" stroke="#CF1D1D" stroke-dasharray="0,0,0,382.5437316894531"><animate attributeType="XML" attributeName="stroke-dasharray" repeatCount="1" dur="2.5s" values="0,0,0,382.5437316894531; 
          0,191.27186584472656,191.27186584472656,0; 
          382.5437316894531,0,0,0" keyTimes="0; 0.5; 1" fill="freeze"></animate></path>
<path d="M223.308 74.4999C223.877 75.4843 223.979 76.7666 223.562 78.3697C223.145 79.9748 222.217 81.854 220.797 83.9715C217.958 88.2045 213.214 93.2949 206.917 98.9117C194.329 110.14 175.612 123.4 153.75 136.021C131.889 148.643 111.047 158.222 95.0288 163.51C87.0159 166.156 80.2358 167.718 75.1502 168.061C72.6063 168.232 70.5151 168.096 68.9162 167.655C67.3195 167.214 66.2602 166.484 65.6918 165.5C65.1234 164.515 65.021 163.233 65.438 161.63C65.8555 160.025 66.7831 158.146 68.2034 156.028C71.0427 151.795 75.786 146.705 82.0833 141.088C94.6717 129.86 113.389 116.6 135.25 103.978C157.112 91.3567 177.954 81.7773 193.971 76.4895C201.984 73.8442 208.764 72.2816 213.85 71.9392C216.394 71.7679 218.485 71.9042 220.084 72.3452C221.681 72.7856 222.74 73.5154 223.308 74.4999Z" stroke="#CF1D1D" stroke-dasharray="0,0,0,382.5439453125"><animate attributeType="XML" attributeName="stroke-dasharray" repeatCount="1" dur="2.5s" values="0,0,0,382.5439453125; 
          0,191.27197265625,191.27197265625,0; 
          382.5439453125,0,0,0" keyTimes="0; 0.5; 1" fill="freeze"></animate></path>
<path d="M208.847 55.6532C209.651 56.457 210.081 57.6691 210.093 59.3254C210.106 60.984 209.696 63.0392 208.872 65.4521C207.225 70.2757 203.961 76.4204 199.332 83.4756C190.079 97.5791 175.431 115.232 157.582 133.081C139.732 150.931 122.079 165.578 107.976 174.832C100.921 179.461 94.7759 182.725 89.9522 184.372C87.5393 185.196 85.4841 185.605 83.8255 185.593C82.1692 185.581 80.9571 185.15 80.1533 184.347C79.3495 183.543 78.9187 182.331 78.9066 180.674C78.8945 179.016 79.3041 176.961 80.1279 174.548C81.7749 169.724 85.0391 163.579 89.6681 156.524C98.9215 142.421 113.569 124.768 131.419 106.918C149.268 89.0686 166.921 74.4214 181.024 65.1679C188.08 60.5389 194.224 57.2747 199.048 55.6278C201.461 54.8039 203.516 54.3943 205.175 54.4065C206.831 54.4186 208.043 54.8494 208.847 55.6532Z" stroke="#CF1D1D" stroke-dasharray="0,0,0,382.5437927246094"><animate attributeType="XML" attributeName="stroke-dasharray" repeatCount="1" dur="2.5s" values="0,0,0,382.5437927246094; 
          0,191.2718963623047,191.2718963623047,0; 
          382.5437927246094,0,0,0" keyTimes="0; 0.5; 1" fill="freeze"></animate></path>
<path d="M190 41.1916C190.984 41.76 191.714 42.8193 192.155 44.416C192.596 46.0149 192.732 48.1061 192.561 50.65C192.218 55.7356 190.656 62.5157 188.01 70.5286C182.722 86.5464 173.143 107.388 160.521 129.25C147.9 151.111 134.64 169.828 123.412 182.417C117.795 188.714 112.705 193.457 108.471 196.297C106.354 197.717 104.475 198.644 102.87 199.062C101.267 199.479 99.9843 199.377 98.9999 198.808C98.0154 198.24 97.2856 197.181 96.8452 195.584C96.4042 193.985 96.2679 191.894 96.4392 189.35C96.7816 184.264 98.3442 177.484 100.989 169.471C106.277 153.453 115.857 132.611 128.478 110.75C141.1 88.8884 154.36 70.1715 165.588 57.5831C171.205 51.2858 176.295 46.5425 180.528 43.7032C182.646 42.2829 184.525 41.3553 186.13 40.9378C187.733 40.5208 189.015 40.6232 190 41.1916Z" stroke="#CF1D1D" stroke-dasharray="0,0,0,382.544189453125"><animate attributeType="XML" attributeName="stroke-dasharray" repeatCount="1" dur="2.5s" values="0,0,0,382.544189453125; 
          0,191.2720947265625,191.2720947265625,0; 
          382.544189453125,0,0,0" keyTimes="0; 0.5; 1" fill="freeze"></animate></path>
<path d="M168.052 32.1007C169.15 32.3949 170.13 33.2292 170.968 34.6576C171.808 36.0879 172.481 38.0725 172.974 40.5741C173.959 45.575 174.205 52.5285 173.724 60.953C172.762 77.7937 168.903 100.405 162.369 124.788C155.836 149.171 147.872 170.683 140.285 185.748C136.489 193.284 132.8 199.184 129.446 203.022C127.768 204.942 126.193 206.324 124.751 207.143C123.31 207.96 122.045 208.193 120.947 207.899C119.849 207.605 118.87 206.771 118.032 205.342C117.192 203.912 116.519 201.927 116.026 199.426C115.04 194.425 114.795 187.471 115.276 179.047C116.238 162.206 120.097 139.595 126.63 115.212C133.164 90.8285 141.128 69.3174 148.715 54.2519C152.51 46.7155 156.2 40.8163 159.554 36.9781C161.231 35.0582 162.806 33.6759 164.249 32.8571C165.689 32.0395 166.954 31.8065 168.052 32.1007Z" stroke="#CF1D1D" stroke-dasharray="0,0,0,382.54345703125"><animate attributeType="XML" attributeName="stroke-dasharray" repeatCount="1" dur="2.5s" values="0,0,0,382.54345703125; 
          0,191.271728515625,191.271728515625,0; 
          382.54345703125,0,0,0" keyTimes="0; 0.5; 1" fill="freeze"></animate></path>
<path d="M144.5 29C145.637 29 146.798 29.5525 147.978 30.7151C149.16 31.8793 150.323 33.6221 151.447 35.9109C153.693 40.4863 155.73 47.1394 157.445 55.4014C160.875 71.9172 163 94.7565 163 120C163 145.243 160.875 168.083 157.445 184.599C155.73 192.861 153.693 199.514 151.447 204.089C150.323 206.378 149.16 208.121 147.978 209.285C146.798 210.448 145.637 211 144.5 211C143.363 211 142.202 210.448 141.022 209.285C139.84 208.121 138.677 206.378 137.553 204.089C135.307 199.514 133.27 192.861 131.555 184.599C128.125 168.083 126 145.243 126 120C126 94.7565 128.125 71.9172 131.555 55.4014C133.27 47.1394 135.307 40.4863 137.553 35.9109C138.677 33.6221 139.84 31.8793 141.022 30.7151C142.202 29.5525 143.363 29 144.5 29Z" stroke="#CF1D1D" stroke-dasharray="0,0,0,382.5437927246094"><animate attributeType="XML" attributeName="stroke-dasharray" repeatCount="1" dur="2.5s" values="0,0,0,382.5437927246094; 
          0,191.2718963623047,191.2718963623047,0; 
          382.5437927246094,0,0,0" keyTimes="0; 0.5; 1" fill="freeze"></animate></path>
<path d="M120.947 32.1008C122.045 31.8066 123.31 32.0396 124.751 32.8572C126.193 33.676 127.768 35.0583 129.446 36.9782C132.8 40.8164 136.489 46.7156 140.285 54.252C147.872 69.3174 155.836 90.8285 162.369 115.212C168.903 139.595 172.762 162.206 173.723 179.047C174.205 187.471 173.959 194.425 172.974 199.426C172.481 201.927 171.808 203.912 170.968 205.342C170.129 206.771 169.15 207.605 168.052 207.899C166.954 208.193 165.689 207.961 164.249 207.143C162.806 206.324 161.231 204.942 159.553 203.022C156.2 199.184 152.51 193.284 148.715 185.748C141.127 170.683 133.164 149.172 126.63 124.788C120.097 100.405 116.238 77.7938 115.276 60.9531C114.795 52.5286 115.04 45.5751 116.026 40.5741C116.519 38.0726 117.192 36.0879 118.031 34.6577C118.87 33.2293 119.849 32.395 120.947 32.1008Z" stroke="#CF1D1D" stroke-dasharray="0,0,0,382.5436096191406"><animate attributeType="XML" attributeName="stroke-dasharray" repeatCount="1" dur="2.5s" values="0,0,0,382.5436096191406; 
          0,191.2718048095703,191.2718048095703,0; 
          382.5436096191406,0,0,0" keyTimes="0; 0.5; 1" fill="freeze"></animate></path>
<path d="M98.9999 41.1918C99.9843 40.6234 101.267 40.5211 102.87 40.938C104.475 41.3556 106.354 42.2831 108.471 43.7034C112.705 46.5427 117.795 51.286 123.412 57.5834C134.64 70.1717 147.9 88.8886 160.521 110.75C173.143 132.612 182.722 153.454 188.01 169.471C190.656 177.484 192.218 184.264 192.561 189.35C192.732 191.894 192.596 193.985 192.155 195.584C191.714 197.181 190.984 198.24 190 198.808C189.015 199.377 187.733 199.479 186.13 199.062C184.525 198.645 182.646 197.717 180.528 196.297C176.295 193.458 171.205 188.714 165.588 182.417C154.36 169.829 141.1 151.112 128.478 129.25C115.857 107.389 106.277 86.5467 100.989 70.5288C98.3442 62.5159 96.7816 55.7358 96.4392 50.6502C96.2679 48.1063 96.4042 46.0151 96.8452 44.4162C97.2856 42.8195 98.0154 41.7602 98.9999 41.1918Z" stroke="#CF1D1D" stroke-dasharray="0,0,0,382.5439758300781"><animate attributeType="XML" attributeName="stroke-dasharray" repeatCount="1" dur="2.5s" values="0,0,0,382.5439758300781; 
          0,191.27198791503906,191.27198791503906,0; 
          382.5439758300781,0,0,0" keyTimes="0; 0.5; 1" fill="freeze"></animate></path>
<path d="M80.1532 55.6535C80.957 54.8497 82.1691 54.4189 83.8254 54.4068C85.484 54.3946 87.5392 54.8042 89.9521 55.6281C94.7757 57.275 100.92 60.5392 107.976 65.1682C122.079 74.4217 139.732 89.0689 157.581 106.919C175.431 124.769 190.078 142.421 199.332 156.524C203.961 163.58 207.225 169.724 208.872 174.548C209.696 176.961 210.105 179.016 210.093 180.675C210.081 182.331 209.65 183.543 208.847 184.347C208.043 185.151 206.831 185.581 205.174 185.594C203.516 185.606 201.461 185.196 199.048 184.372C194.224 182.725 188.079 179.461 181.024 174.832C166.921 165.579 149.268 150.932 131.418 133.082C113.569 115.232 98.9214 97.5794 89.6679 83.4759C85.0389 76.4207 81.7747 70.276 80.1278 65.4524C79.3039 63.0395 78.8943 60.9843 78.9065 59.3257C78.9186 57.6694 79.3494 56.4573 80.1532 55.6535Z" stroke="#CF1D1D" stroke-dasharray="0,0,0,382.543701171875"><animate attributeType="XML" attributeName="stroke-dasharray" repeatCount="1" dur="2.5s" values="0,0,0,382.543701171875; 
          0,191.2718505859375,191.2718505859375,0; 
          382.543701171875,0,0,0" keyTimes="0; 0.5; 1" fill="freeze"></animate></path>
<path d="M65.6916 74.5001C66.26 73.5157 67.3193 72.7858 68.916 72.3454C70.5149 71.9044 72.6061 71.7681 75.15 71.9394C80.2356 72.2818 87.0157 73.8444 95.0286 76.4897C111.046 81.7776 131.888 91.3569 153.75 103.979C175.611 116.6 194.328 129.86 206.917 141.088C213.214 146.705 217.957 151.795 220.797 156.029C222.217 158.146 223.144 160.025 223.562 161.63C223.979 163.233 223.877 164.516 223.308 165.5C222.74 166.485 221.681 167.214 220.084 167.655C218.485 168.096 216.394 168.232 213.85 168.061C208.764 167.718 201.984 166.156 193.971 163.511C177.953 158.223 157.111 148.643 135.25 136.022C113.388 123.4 94.6715 110.14 82.0831 98.9119C75.7858 93.2951 71.0425 88.2047 68.2032 83.9717C66.7829 81.8542 65.8553 79.9751 65.4378 78.3699C65.0208 76.7668 65.1232 75.4846 65.6916 74.5001Z" stroke="#CF1D1D" stroke-dasharray="0,0,0,382.54412841796875"><animate attributeType="XML" attributeName="stroke-dasharray" repeatCount="1" dur="2.5s" values="0,0,0,382.54412841796875; 
          0,191.27206420898438,191.27206420898438,0; 
          382.54412841796875,0,0,0" keyTimes="0; 0.5; 1" fill="freeze"></animate></path>
<path d="M56.6005 96.4476C56.8947 95.3496 57.729 94.3705 59.1573 93.5318C60.5876 92.692 62.5723 92.0191 65.0738 91.5261C70.0747 90.5406 77.0282 90.2952 85.4528 90.7764C102.293 91.7384 124.905 95.597 149.288 102.131C173.671 108.664 195.182 116.628 210.248 124.215C217.784 128.011 223.683 131.7 227.522 135.054C229.441 136.732 230.824 138.307 231.643 139.749C232.46 141.19 232.693 142.455 232.399 143.553C232.105 144.651 231.27 145.63 229.842 146.468C228.412 147.308 226.427 147.981 223.926 148.474C218.925 149.46 211.971 149.705 203.547 149.224C186.706 148.262 164.095 144.403 139.712 137.87C115.328 131.336 93.8171 123.372 78.7517 115.785C71.2152 111.99 65.316 108.3 61.4779 104.946C59.558 103.269 58.1756 101.694 57.3569 100.251C56.5392 98.8107 56.3062 97.5456 56.6005 96.4476Z" stroke="#CF1D1D" stroke-dasharray="0,0,0,382.5436706542969"><animate attributeType="XML" attributeName="stroke-dasharray" repeatCount="1" dur="2.5s" values="0,0,0,382.5436706542969; 
          0,191.27183532714844,191.27183532714844,0; 
          382.5436706542969,0,0,0" keyTimes="0; 0.5; 1" fill="freeze"></animate></path>
<setting>{"type":"direct","speed":20,"random":1,"shift":1,"size":1,"rupture":50}</setting></svg>