<svg width="64" height="64" viewBox="0 0 64 64" fill="none" xmlns="http://www.w3.org/2000/svg">
<circle cx="32" cy="32" r="32" fill="white" fill-opacity="0.4"/>
<g opacity="0.6">
<path fill-rule="evenodd" clip-rule="evenodd" d="M31.7245 41.6095C31.2038 41.0888 31.2038 40.2446 31.7245 39.7239L39.4484 32L31.7245 24.2761C31.2038 23.7554 31.2038 22.9112 31.7245 22.3905C32.2452 21.8698 33.0894 21.8698 33.6101 22.3905L41.334 30.1144C42.3754 31.1558 42.3754 32.8442 41.334 33.8856L33.6101 41.6095C33.0894 42.1302 32.2452 42.1302 31.7245 41.6095Z" fill="white"/>
<path fill-rule="evenodd" clip-rule="evenodd" d="M23.3905 41.6095C22.8698 41.0888 22.8698 40.2446 23.3905 39.7239L31.1144 32L23.3905 24.2761C22.8698 23.7554 22.8698 22.9112 23.3905 22.3905C23.9112 21.8698 24.7554 21.8698 25.2761 22.3905L33 30.1144C34.0414 31.1558 34.0414 32.8442 33 33.8856L25.2761 41.6095C24.7554 42.1302 23.9112 42.1302 23.3905 41.6095Z" fill="white"/>
</g>
</svg>
