<svg width="64" height="64" viewBox="0 0 64 64" fill="none" xmlns="http://www.w3.org/2000/svg">
<circle cx="32" cy="32" r="32" fill="white" fill-opacity="0.4"/>
<g opacity="0.6">
<path fill-rule="evenodd" clip-rule="evenodd" d="M32.2755 22.3905C32.7962 22.9112 32.7962 23.7554 32.2755 24.2761L24.5516 32L32.2755 39.7239C32.7962 40.2446 32.7962 41.0888 32.2755 41.6095C31.7548 42.1302 30.9106 42.1302 30.3899 41.6095L22.666 33.8856C21.6246 32.8442 21.6246 31.1558 22.666 30.1144L30.3899 22.3905C30.9106 21.8698 31.7548 21.8698 32.2755 22.3905Z" fill="white"/>
<path fill-rule="evenodd" clip-rule="evenodd" d="M40.6095 22.3905C41.1302 22.9112 41.1302 23.7554 40.6095 24.2761L32.8856 32L40.6095 39.7239C41.1302 40.2446 41.1302 41.0888 40.6095 41.6095C40.0888 42.1302 39.2446 42.1302 38.7239 41.6095L31 33.8856C29.9586 32.8442 29.9586 31.1558 31 30.1144L38.7239 22.3905C39.2446 21.8698 40.0888 21.8698 40.6095 22.3905Z" fill="white"/>
</g>
</svg>
