<svg width="24" height="24" viewBox="0 0 24 24" fill="none" xmlns="http://www.w3.org/2000/svg">
<g opacity="0.8">
<path fill-rule="evenodd" clip-rule="evenodd" d="M18.2222 3H5.77778C4.8 3 4 3.81 4 4.8V6.60001C4 7.59001 4.8 8.40001 5.77778 8.40001H18.2222C19.2 8.40001 20 7.59001 20 6.60001V4.8C20 3.81 19.2 3 18.2222 3ZM10.2222 5.7C10.2222 5.205 10.6222 4.8 11.1111 4.8H15.5556C16.0444 4.8 16.4444 5.205 16.4444 5.7C16.4444 6.195 16.0444 6.60001 15.5556 6.60001H11.1111C10.6222 6.60001 10.2222 6.195 10.2222 5.7ZM8.44444 5.7C8.44444 6.195 8.04444 6.60001 7.55556 6.60001C7.06667 6.60001 6.66667 6.195 6.66667 5.7C6.66667 5.205 7.06667 4.8 7.55556 4.8C8.04444 4.8 8.44444 5.205 8.44444 5.7ZM18.2222 9.29993H5.77778C4.8 9.29993 4 10.1099 4 11.0999V12.8999C4 13.8899 4.8 14.6999 5.77778 14.6999H18.2222C19.2 14.6999 20 13.8899 20 12.8999V11.0999C20 10.1099 19.2 9.29993 18.2222 9.29993ZM10.2222 11.9999C10.2222 11.5049 10.6222 11.0999 11.1111 11.0999H15.5556C16.0444 11.0999 16.4444 11.5049 16.4444 11.9999C16.4444 12.4949 16.0444 12.8999 15.5556 12.8999H11.1111C10.6222 12.8999 10.2222 12.4949 10.2222 11.9999ZM8.44444 11.9999C8.44444 12.4949 8.04444 12.8999 7.55556 12.8999C7.06667 12.8999 6.66667 12.4949 6.66667 11.9999C6.66667 11.5049 7.06667 11.0999 7.55556 11.0999C8.04444 11.0999 8.44444 11.5049 8.44444 11.9999ZM18.2222 15.5999H5.77778C4.8 15.5999 4 16.4099 4 17.3999V19.1999C4 20.1899 4.8 20.9999 5.77778 20.9999H18.2222C19.2 20.9999 20 20.1899 20 19.1999V17.3999C20 16.4099 19.2 15.5999 18.2222 15.5999ZM10.2222 18.2999C10.2222 17.8049 10.6222 17.3999 11.1111 17.3999H15.5556C16.0444 17.3999 16.4444 17.8049 16.4444 18.2999C16.4444 18.7949 16.0444 19.1999 15.5556 19.1999H11.1111C10.6222 19.1999 10.2222 18.7949 10.2222 18.2999ZM8.44444 18.2999C8.44444 18.7949 8.04444 19.1999 7.55556 19.1999C7.06667 19.1999 6.66667 18.7949 6.66667 18.2999C6.66667 17.8049 7.06667 17.3999 7.55556 17.3999C8.04444 17.3999 8.44444 17.8049 8.44444 18.2999Z" fill="white"/>
</g>
</svg>
